<svg width="17" height="18" viewBox="0 0 17 18" fill="none" xmlns="http://www.w3.org/2000/svg">
<g clip-path="url(#clip0_6_6832)">
<path d="M8.15208 11.8209C7.79656 12.1764 7.21597 12.1764 6.86044 11.8209L4.77294 9.73337C4.41741 9.37784 4.41741 8.79726 4.77294 8.44173C5.12847 8.0862 5.70906 8.0862 6.06458 8.44173L7.50626 9.88341L11.0354 6.35423C11.391 5.9987 11.9716 5.9987 12.3271 6.35423C12.6826 6.70976 12.6826 7.29034 12.3271 7.64587L8.15208 11.8209ZM16.9 9.08755C16.9 13.6996 13.1621 17.4375 8.55001 17.4375C3.93794 17.4375 0.200012 13.6996 0.200012 9.08755C0.200012 4.47548 3.93794 0.737549 8.55001 0.737549C13.1621 0.737549 16.9 4.47548 16.9 9.08755ZM8.55001 2.30317C4.8023 2.30317 1.76564 5.33983 1.76564 9.08755C1.76564 12.8353 4.8023 15.8719 8.55001 15.8719C12.2977 15.8719 15.3344 12.8353 15.3344 9.08755C15.3344 5.33983 12.2977 2.30317 8.55001 2.30317Z" fill="#07AA07"/>
</g>
<defs>
<clipPath id="clip0_6_6832">
<rect width="16.7" height="16.7" fill="white" transform="translate(0.200012 0.737549)"/>
</clipPath>
</defs>
</svg>
