<svg width="17" height="20" viewBox="0 0 17 20" fill="none" xmlns="http://www.w3.org/2000/svg">
<g clip-path="url(#clip0_6_6987)">
<path d="M14.9107 1.19287H1.78929C1.31474 1.19287 0.859626 1.38138 0.52407 1.71694C0.188513 2.0525 0 2.50761 0 2.98216L0 16.1036C0 16.5781 0.188513 17.0332 0.52407 17.3688C0.859626 17.7044 1.31474 17.8929 1.78929 17.8929H6.90552V12.2152H4.55709V9.54287H6.90552V7.50607C6.90552 5.18932 8.28477 3.9096 10.3972 3.9096C11.4089 3.9096 12.4668 4.09002 12.4668 4.09002V6.36391H11.3012C10.1527 6.36391 9.79448 7.07664 9.79448 7.80764V9.54287H12.3584L11.9483 12.2152H9.79448V17.8929H14.9107C15.3853 17.8929 15.8404 17.7044 16.1759 17.3688C16.5115 17.0332 16.7 16.5781 16.7 16.1036V2.98216C16.7 2.50761 16.5115 2.0525 16.1759 1.71694C15.8404 1.38138 15.3853 1.19287 14.9107 1.19287Z" fill="white"/>
</g>
<defs>
<clipPath id="clip0_6_6987">
<rect width="16.7" height="19.0857" fill="white"/>
</clipPath>
</defs>
</svg>
