<svg width="18" height="17" viewBox="0 0 18 17" fill="none" xmlns="http://www.w3.org/2000/svg">
<path d="M9.18706 4.25597C6.81626 4.25597 4.90396 6.16827 4.90396 8.53908C4.90396 10.9099 6.81626 12.8222 9.18706 12.8222C11.5579 12.8222 13.4702 10.9099 13.4702 8.53908C13.4702 6.16827 11.5579 4.25597 9.18706 4.25597ZM9.18706 11.3237C7.65498 11.3237 6.40248 10.0749 6.40248 8.53908C6.40248 7.00327 7.65126 5.7545 9.18706 5.7545C10.7229 5.7545 11.9716 7.00327 11.9716 8.53908C11.9716 10.0749 10.7191 11.3237 9.18706 11.3237ZM14.6444 4.08077C14.6444 4.6362 14.1971 5.07979 13.6454 5.07979C13.0899 5.07979 12.6463 4.63247 12.6463 4.08077C12.6463 3.52908 13.0937 3.08175 13.6454 3.08175C14.1971 3.08175 14.6444 3.52908 14.6444 4.08077ZM17.4811 5.0947C17.4178 3.75646 17.1121 2.57106 16.1317 1.59441C15.1551 0.617758 13.9697 0.312088 12.6314 0.24499C11.2522 0.166709 7.1182 0.166709 5.73896 0.24499C4.40445 0.308361 3.21905 0.61403 2.23867 1.59068C1.25829 2.56733 0.956345 3.75274 0.889247 5.09097C0.810966 6.47021 0.810966 10.6042 0.889247 11.9834C0.952617 13.3217 1.25829 14.5071 2.23867 15.4837C3.21905 16.4604 4.40072 16.7661 5.73896 16.8332C7.1182 16.9114 11.2522 16.9114 12.6314 16.8332C13.9697 16.7698 15.1551 16.4641 16.1317 15.4837C17.1084 14.5071 17.414 13.3217 17.4811 11.9834C17.5594 10.6042 17.5594 6.47394 17.4811 5.0947ZM15.6993 13.4633C15.4086 14.194 14.8457 14.7568 14.1113 15.0513C13.0117 15.4875 10.4023 15.3868 9.18706 15.3868C7.97184 15.3868 5.35873 15.4837 4.2628 15.0513C3.53217 14.7606 2.96929 14.1977 2.6748 13.4633C2.23867 12.3637 2.33931 9.7543 2.33931 8.53908C2.33931 7.32385 2.24239 4.71075 2.6748 3.61481C2.96556 2.88419 3.52844 2.32131 4.2628 2.02682C5.36246 1.59068 7.97184 1.69133 9.18706 1.69133C10.4023 1.69133 13.0154 1.59441 14.1113 2.02682C14.8419 2.31758 15.4048 2.88046 15.6993 3.61481C16.1355 4.71448 16.0348 7.32385 16.0348 8.53908C16.0348 9.7543 16.1355 12.3674 15.6993 13.4633Z" fill="white"/>
</svg>
