<svg width="46" height="26" viewBox="0 0 46 26" fill="none" xmlns="http://www.w3.org/2000/svg">
<path d="M10.5566 1.31383C10.5566 1.36457 10.524 1.41893 10.4587 1.47692C10.3935 1.52766 10.3427 1.57115 10.3065 1.60739C10.234 1.68712 10.1652 1.7741 10.0999 1.86833C10.0347 1.95531 9.96946 2.04591 9.90422 2.14014C9.46933 2.75624 9.09242 3.40496 8.77349 4.0863C8.46182 4.76038 8.17914 5.44897 7.92545 6.15205C7.77323 6.5797 7.63914 7.01459 7.52317 7.45674C7.41444 7.89888 7.30572 8.34465 7.197 8.79404C7.09552 9.23619 6.9868 9.67833 6.87083 10.1205C6.75485 10.5626 6.61714 10.9975 6.45767 11.4252C6.30546 11.8383 6.12425 12.2225 5.91405 12.5776C5.70385 12.94 5.45741 13.2517 5.17473 13.5127C4.89205 13.7736 4.56588 13.9766 4.19622 14.1215C3.81931 14.2737 3.39166 14.3498 2.91327 14.3498C2.56536 14.3498 2.22469 14.2955 1.89127 14.1868C1.5506 14.0853 1.24255 13.9258 0.967114 13.7084C0.698929 13.4982 0.50685 13.2517 0.390877 12.969C0.274905 12.6864 0.216919 12.3819 0.216919 12.0558C0.216919 11.6499 0.293026 11.244 0.445239 10.8381C0.590205 10.4322 0.789532 10.0444 1.04322 9.67471C1.28966 9.31229 1.57597 8.98612 1.90214 8.69619C2.22106 8.39901 2.55811 8.16344 2.91327 7.98949C2.95676 7.97499 2.98576 7.96774 3.00025 7.96774C3.04374 7.96774 3.07998 7.98586 3.10898 8.0221C3.13797 8.0511 3.15247 8.08734 3.15247 8.13083C3.15247 8.19606 3.12347 8.2468 3.06549 8.28304C2.98576 8.32653 2.90965 8.37002 2.83717 8.41351C2.76468 8.457 2.6922 8.50411 2.61972 8.55485C2.25731 8.80854 1.94201 9.10934 1.67382 9.45726C1.40563 9.80518 1.18094 10.1785 0.999731 10.5771C0.898256 10.8018 0.818525 11.0301 0.760539 11.2621C0.702553 11.5013 0.67356 11.7405 0.67356 11.9797C0.67356 12.2478 0.720673 12.4979 0.814901 12.7299C0.90188 12.9618 1.05047 13.1611 1.26067 13.3278C1.49261 13.5018 1.75355 13.6286 2.04348 13.7084C2.33341 13.7881 2.61609 13.828 2.89153 13.828C3.31193 13.828 3.68521 13.7591 4.01139 13.6214C4.33031 13.4909 4.60937 13.3061 4.84856 13.0669C5.08775 12.835 5.29433 12.5595 5.46829 12.2406C5.64949 11.9289 5.80533 11.5919 5.9358 11.2295C6.09526 10.8018 6.22935 10.3669 6.33808 9.92477C6.45405 9.48263 6.55915 9.04048 6.65338 8.59834C6.75485 8.14895 6.85995 7.70318 6.96868 7.26104C7.0774 6.81889 7.20787 6.38037 7.36008 5.94548C7.59203 5.29313 7.86021 4.65891 8.16464 4.04281C8.47632 3.41946 8.83873 2.83235 9.25188 2.28148C9.12141 2.34671 8.98732 2.41195 8.8496 2.47718C8.71913 2.54242 8.59229 2.6149 8.46907 2.69463C8.15739 2.88308 7.85296 3.10416 7.55579 3.35785C7.25861 3.61153 7.04478 3.91234 6.91431 4.26025C6.88532 4.32549 6.86358 4.39072 6.84908 4.45596C6.84183 4.51394 6.83096 4.57555 6.81646 4.64079C6.80921 4.66978 6.79109 4.69515 6.7621 4.71689C6.73311 4.73139 6.70412 4.73864 6.67512 4.73864C6.64613 4.73864 6.60626 4.72777 6.55553 4.70602C6.51204 4.67703 6.49029 4.64441 6.49029 4.60817C6.49029 4.33998 6.53741 4.08992 6.63163 3.85798C6.73311 3.62603 6.85995 3.41221 7.01217 3.2165C7.17163 3.01355 7.35283 2.83235 7.55579 2.67288C7.75874 2.50617 7.96531 2.35758 8.17551 2.22712C8.51618 2.01692 8.8641 1.81396 9.21926 1.61826C9.58168 1.42256 9.95134 1.25585 10.3282 1.11813H10.3609C10.3971 1.11813 10.437 1.13988 10.4805 1.18337C10.5312 1.22686 10.5566 1.27035 10.5566 1.31383ZM13.8292 5.56494C13.8292 5.84038 13.7965 6.14118 13.7313 6.46735C13.6733 6.79352 13.5827 7.11969 13.4595 7.44587C13.3363 7.77204 13.1841 8.09096 13.0029 8.40264C12.8289 8.70706 12.6259 8.97887 12.394 9.21807C12.1693 9.45726 11.9156 9.64571 11.6329 9.78343C11.3575 9.9284 11.0603 10.0009 10.7414 10.0009C10.5022 10.0009 10.2956 9.93564 10.1217 9.80518C9.94771 9.68196 9.79912 9.52249 9.6759 9.32679C9.55993 9.13109 9.47295 8.92089 9.41497 8.69619C9.35698 8.46425 9.32799 8.2468 9.32799 8.04385C9.32799 7.80465 9.3606 7.56909 9.42584 7.33714C9.62879 6.6703 9.95496 6.07594 10.4044 5.55407C10.8537 5.03219 11.401 4.64079 12.0461 4.37985C12.0606 4.3726 12.0787 4.36898 12.1004 4.36898C12.1512 4.36898 12.1874 4.3871 12.2092 4.42334C12.2382 4.45958 12.2527 4.49945 12.2527 4.54294C12.2527 4.59367 12.2237 4.63716 12.1657 4.67341C12.0642 4.73139 11.9627 4.78938 11.8613 4.84736C11.7598 4.8981 11.6583 4.96334 11.5568 5.04307C11.1582 5.333 10.8175 5.69179 10.5348 6.11943C10.2521 6.54708 10.0383 6.99647 9.89335 7.46761C9.84261 7.61982 9.81724 7.79016 9.81724 7.97861C9.81724 8.13083 9.83899 8.29391 9.88248 8.46787C9.92597 8.64183 9.9912 8.80492 10.0782 8.95713C10.1652 9.10209 10.2739 9.22531 10.4044 9.32679C10.5421 9.42102 10.7015 9.46813 10.8827 9.46813C10.9987 9.46813 11.1074 9.44639 11.2089 9.4029C11.3176 9.35941 11.4191 9.30505 11.5133 9.23981C11.7888 9.04411 12.0352 8.79042 12.2527 8.47874C12.4701 8.16707 12.6549 7.83365 12.8072 7.47848C12.9594 7.11607 13.0753 6.75003 13.1551 6.38037C13.2348 6.00346 13.2747 5.6483 13.2747 5.31488V5.18441C13.2602 4.99595 13.1949 4.83649 13.079 4.70602C12.9702 4.57555 12.8325 4.47045 12.6658 4.39072C12.6151 4.36898 12.5643 4.35086 12.5136 4.33636C12.4701 4.32186 12.4266 4.30374 12.3831 4.282C12.3106 4.25301 12.2744 4.20227 12.2744 4.12979C12.2744 4.07905 12.2889 4.03556 12.3179 3.99932C12.3469 3.96308 12.3868 3.94858 12.4375 3.95583H12.4484C12.6078 3.97032 12.7637 4.00656 12.9159 4.06455C13.0753 4.12254 13.2167 4.20227 13.3399 4.30374C13.4631 4.40522 13.5646 4.52482 13.6443 4.66253C13.7313 4.80025 13.7857 4.95609 13.8074 5.13005C13.8219 5.20253 13.8292 5.27501 13.8292 5.34749C13.8292 5.41273 13.8292 5.48521 13.8292 5.56494ZM19.6459 8.7723C19.6459 8.83028 19.6278 8.86653 19.5915 8.88102C19.5045 8.96075 19.3813 9.05498 19.2219 9.1637C19.0697 9.26518 18.9066 9.36303 18.7326 9.45726C18.5659 9.55149 18.3992 9.63122 18.2325 9.69645C18.0658 9.76893 17.9244 9.80518 17.8085 9.80518C17.7215 9.80518 17.6417 9.78343 17.5693 9.73994C17.4968 9.7037 17.4315 9.65296 17.3736 9.58773C17.3228 9.52249 17.2793 9.45001 17.2431 9.37028C17.2141 9.29055 17.1996 9.21082 17.1996 9.13109C17.1996 9.11659 17.1996 9.10209 17.1996 9.0876C17.2068 9.06585 17.2105 9.04773 17.2105 9.03324C17.2322 8.87377 17.254 8.71794 17.2757 8.56572C17.2975 8.41351 17.3301 8.2613 17.3736 8.10908C17.446 7.81915 17.533 7.53647 17.6345 7.26104C17.7432 6.97835 17.8483 6.69929 17.9498 6.42386C18.0585 6.14118 18.16 5.86212 18.2542 5.58669C18.3557 5.304 18.4391 5.0177 18.5043 4.72777C18.5188 4.68428 18.526 4.64079 18.526 4.5973C18.5333 4.55381 18.5405 4.51032 18.5478 4.46683C18.4246 4.48133 18.2832 4.52844 18.1238 4.60817C17.9715 4.6879 17.8157 4.78213 17.6562 4.89085C17.4968 4.99958 17.3446 5.11555 17.1996 5.23877C17.0619 5.35474 16.9459 5.45259 16.8517 5.53232C16.7357 5.6338 16.6016 5.7534 16.4494 5.89111C16.2972 6.02883 16.1486 6.1738 16.0036 6.32601C15.8587 6.47822 15.7246 6.63406 15.6014 6.79352C15.4781 6.94574 15.3912 7.09433 15.3404 7.23929C15.2824 7.38426 15.2353 7.53285 15.1991 7.68506C15.1628 7.83002 15.1193 7.97499 15.0686 8.11995C14.9744 8.42438 14.8729 8.72881 14.7642 9.03324C14.6627 9.33766 14.5504 9.64209 14.4271 9.94652C14.3837 10.048 14.3402 10.1531 14.2967 10.2618C14.2532 10.3778 14.2024 10.4829 14.1445 10.5771C14.1155 10.6279 14.072 10.6532 14.014 10.6532C13.9777 10.6532 13.9379 10.6351 13.8944 10.5989C13.8509 10.5699 13.8292 10.5336 13.8292 10.4901C13.8292 10.4829 13.8328 10.4575 13.84 10.414C13.8545 10.3705 13.8654 10.3198 13.8726 10.2618C13.8871 10.2111 13.898 10.1603 13.9053 10.1096C13.9198 10.0661 13.927 10.0371 13.927 10.0226C14.0937 9.29055 14.293 8.57297 14.525 7.86989C14.7569 7.16681 14.9853 6.45648 15.21 5.7389C15.4057 5.10105 15.605 4.47045 15.8079 3.8471C16.0109 3.2165 16.2175 2.58591 16.4277 1.95531C16.4929 1.74511 16.5581 1.53491 16.6234 1.32471C16.6958 1.11451 16.7683 0.904308 16.8408 0.694108C16.8771 0.607129 16.906 0.516526 16.9278 0.422298C16.9568 0.328071 16.9894 0.237468 17.0256 0.150488C17.0474 0.0925023 17.0909 0.0635092 17.1561 0.0635092C17.1924 0.0635092 17.2322 0.0816299 17.2757 0.117871C17.3192 0.146864 17.3409 0.183106 17.3409 0.226595L17.3301 0.237468C17.0981 1.16525 16.8481 2.08577 16.5799 2.99906C16.3189 3.91234 16.0508 4.82562 15.7753 5.7389C15.9275 5.57944 16.1196 5.39461 16.3516 5.18441C16.5835 4.96696 16.8299 4.76401 17.0909 4.57555C17.3518 4.3871 17.6164 4.22764 17.8846 4.09717C18.16 3.95945 18.4137 3.89059 18.6456 3.89059C18.6964 3.89059 18.7471 3.90509 18.7978 3.93408C18.8486 3.96308 18.8957 4.00294 18.9392 4.05368C18.9827 4.09717 19.0189 4.14791 19.0479 4.20589C19.0769 4.25663 19.0914 4.30737 19.0914 4.35811C19.0914 4.43784 19.0878 4.52119 19.0805 4.60817C19.0733 4.6879 19.0588 4.76763 19.037 4.84736C18.9646 5.13729 18.8776 5.4236 18.7761 5.70628C18.6746 5.98896 18.5659 6.27165 18.4499 6.55433C18.3412 6.82976 18.2325 7.10882 18.1238 7.3915C18.015 7.66694 17.9172 7.94962 17.8302 8.23955C17.794 8.36277 17.7541 8.50411 17.7106 8.66357C17.6744 8.81579 17.6562 8.95713 17.6562 9.0876C17.6562 9.15283 17.6635 9.21807 17.678 9.2833C17.6997 9.34854 17.7505 9.38115 17.8302 9.38115C17.9607 9.38115 18.1165 9.34129 18.2977 9.26156C18.4789 9.18183 18.6529 9.09485 18.8196 9.00062C18.9863 8.89914 19.1313 8.80854 19.2545 8.72881C19.3777 8.64183 19.4538 8.59834 19.4828 8.59834C19.5335 8.59834 19.5734 8.61646 19.6024 8.6527C19.6314 8.68894 19.6459 8.72881 19.6459 8.7723ZM24.7994 8.75055C24.7994 8.79404 24.7813 8.82666 24.745 8.8484C24.6653 8.91364 24.5711 8.98612 24.4624 9.06585C24.3536 9.14558 24.2377 9.22531 24.1144 9.30505C23.9912 9.37753 23.868 9.44639 23.7448 9.51162C23.6288 9.57686 23.5237 9.62759 23.4295 9.66383C23.2628 9.73632 23.1069 9.77256 22.962 9.77256C22.7445 9.77256 22.5851 9.69283 22.4836 9.53337C22.3894 9.38115 22.3422 9.21082 22.3422 9.02236C22.3422 8.79767 22.3785 8.54398 22.451 8.2613C22.5235 7.97137 22.6104 7.67781 22.7119 7.38063C22.8134 7.08345 22.9185 6.79352 23.0272 6.51084C23.1432 6.22091 23.241 5.96722 23.3208 5.74977C23.4005 5.53957 23.473 5.32937 23.5382 5.11917C23.6034 4.90173 23.6469 4.67703 23.6687 4.44508C23.5382 4.45958 23.3606 4.53206 23.1359 4.66253C22.9112 4.793 22.6757 4.94521 22.4292 5.11917C22.19 5.28588 21.9617 5.45259 21.7443 5.6193C21.5268 5.78601 21.3565 5.91286 21.2333 5.99984L20.8419 6.78265C20.6679 7.12332 20.5012 7.46399 20.3417 7.80465C20.1895 8.13808 20.0409 8.47874 19.896 8.82666C19.8307 8.99337 19.7691 9.16008 19.7111 9.32679C19.6531 9.4935 19.5879 9.66021 19.5154 9.82692C19.4937 9.88491 19.4538 9.9139 19.3958 9.9139C19.3668 9.9139 19.3306 9.89578 19.2871 9.85954C19.2364 9.8233 19.211 9.79068 19.211 9.76169C19.211 9.75444 19.2182 9.72907 19.2327 9.68558C19.24 9.64934 19.2509 9.60585 19.2654 9.55511C19.2726 9.50437 19.2835 9.45726 19.298 9.41377C19.3052 9.37028 19.3088 9.34129 19.3088 9.32679C19.4321 8.8484 19.5807 8.37727 19.7546 7.91338C19.9358 7.44949 20.1351 6.99285 20.3526 6.54346C20.4541 6.33326 20.5519 6.12306 20.6462 5.91286C20.7404 5.69541 20.8382 5.48159 20.9397 5.27139C20.9832 5.19166 21.0339 5.0938 21.0919 4.97783C21.1572 4.86186 21.2224 4.74589 21.2876 4.62992C21.3601 4.50669 21.4326 4.39435 21.5051 4.29287C21.5776 4.18415 21.6464 4.10079 21.7116 4.04281C21.7406 4.01381 21.7733 3.99932 21.8095 3.99932C21.8385 3.99932 21.8784 4.02106 21.9291 4.06455C21.9798 4.10079 22.0052 4.13703 22.0052 4.17327C22.0052 4.19502 21.9907 4.24576 21.9617 4.32549C21.94 4.40522 21.911 4.4922 21.8747 4.58643C21.8385 4.67341 21.8022 4.76038 21.766 4.84736C21.737 4.92709 21.7189 4.98146 21.7116 5.01045C21.8349 4.89448 21.9762 4.76763 22.1357 4.62992C22.3024 4.4922 22.4763 4.36535 22.6575 4.24938C22.846 4.13341 23.0381 4.03918 23.2338 3.9667C23.4295 3.88697 23.6143 3.8471 23.7883 3.8471C23.8897 3.8471 23.984 3.89422 24.071 3.98844C24.1652 4.07542 24.2195 4.16965 24.234 4.27113C24.2485 4.34361 24.2558 4.39797 24.2558 4.43421C24.2558 4.55743 24.2304 4.70965 24.1797 4.89085C24.1362 5.06481 24.0927 5.2134 24.0492 5.33662C23.9767 5.54682 23.8716 5.82588 23.7339 6.1738C23.5962 6.51446 23.4585 6.866 23.3208 7.22842C23.183 7.59083 23.0634 7.93875 22.962 8.27217C22.8605 8.60559 22.8098 8.86653 22.8098 9.05498C22.8098 9.13471 22.817 9.20357 22.8315 9.26156C22.846 9.31229 22.9004 9.33766 22.9946 9.33766C23.1251 9.33766 23.2773 9.2978 23.4512 9.21807C23.6324 9.13834 23.8064 9.05136 23.9731 8.95713C24.1398 8.85565 24.2848 8.76505 24.408 8.68532C24.5312 8.60559 24.6073 8.56572 24.6363 8.56572C24.6798 8.56572 24.7161 8.58747 24.745 8.63096C24.7813 8.6672 24.7994 8.70706 24.7994 8.75055ZM37.2483 3.92321C37.2483 4.34361 37.1831 4.7785 37.0526 5.2279C36.9294 5.67004 36.7518 6.10494 36.5198 6.53258C36.2952 6.96023 36.027 7.36614 35.7153 7.75029C35.4036 8.13445 35.0593 8.4715 34.6824 8.76143C34.3055 9.05136 33.9032 9.2833 33.4756 9.45726C33.0479 9.62397 32.6094 9.70732 32.16 9.70732C31.7179 9.70732 31.3011 9.61672 30.9097 9.43551C30.5183 9.24706 30.1631 9.00424 29.8442 8.70706C29.5543 9.01149 29.2136 9.26156 28.8222 9.45726C28.438 9.64571 28.0358 9.73994 27.6154 9.73994C27.5719 9.73994 27.5392 9.72182 27.5175 9.68558C27.4885 9.64934 27.474 9.6131 27.474 9.57686C27.474 9.48988 27.5139 9.43551 27.5936 9.41377C27.7386 9.38478 27.8763 9.35941 28.0068 9.33766C28.1445 9.30867 28.2858 9.26156 28.4308 9.19632C28.7642 9.04411 29.0578 8.83391 29.3114 8.56572C29.5724 8.29754 29.8007 8.00036 29.9964 7.67419C30.1994 7.34801 30.3733 7.00735 30.5183 6.65218C30.6633 6.28977 30.7973 5.94548 30.9206 5.6193C31.0293 5.32937 31.1271 5.03944 31.2141 4.74951C31.3011 4.45233 31.3917 4.15878 31.4859 3.86885C31.5802 3.57167 31.6816 3.28174 31.7904 2.99906C31.8991 2.70913 32.0259 2.42644 32.1709 2.15101C31.9679 2.26698 31.7614 2.37571 31.5512 2.47718C31.341 2.57141 31.138 2.68013 30.9423 2.80335C30.6524 2.98456 30.3661 3.19476 30.0834 3.43395C29.8007 3.6659 29.5869 3.94495 29.4419 4.27113C29.4057 4.35086 29.3803 4.43059 29.3658 4.51032C29.3513 4.59005 29.3332 4.66978 29.3114 4.74951C29.3042 4.7785 29.2861 4.80387 29.2571 4.82562C29.2281 4.84012 29.1991 4.84736 29.1701 4.84736C29.1049 4.84736 29.0578 4.82924 29.0288 4.793C29.007 4.75676 28.9962 4.70965 28.9962 4.65166C28.9962 4.36173 29.0578 4.08992 29.181 3.83623C29.3042 3.58254 29.4673 3.34697 29.6702 3.12952C29.8804 2.91208 30.116 2.70913 30.3769 2.52067C30.6379 2.33222 30.9061 2.16188 31.1815 2.00967C31.4642 1.85021 31.7396 1.70887 32.0078 1.58564C32.2832 1.45518 32.5333 1.34283 32.758 1.2486C32.7725 1.24135 32.7834 1.2341 32.7906 1.22686C32.8051 1.21961 32.8232 1.21598 32.845 1.21598C32.8885 1.21598 32.9283 1.2341 32.9646 1.27035C33.0081 1.29934 33.0298 1.3392 33.0298 1.38994C33.0298 1.39719 33.0117 1.44068 32.9754 1.52041C32.9465 1.60014 32.9138 1.69074 32.8776 1.79222C32.8414 1.88645 32.8015 1.98067 32.758 2.0749C32.7218 2.16188 32.7 2.21987 32.6928 2.24886C32.9899 1.92994 33.3197 1.67262 33.6822 1.47692C34.0446 1.28122 34.4468 1.18337 34.889 1.18337H35.1064C35.2949 1.21236 35.4797 1.26672 35.6609 1.34645C35.8421 1.42618 36.0125 1.52766 36.1719 1.65088C36.3314 1.76685 36.4764 1.90094 36.6068 2.05316C36.7373 2.19812 36.846 2.35396 36.933 2.52067C37.0417 2.73812 37.1215 2.96644 37.1722 3.20563C37.2229 3.44482 37.2483 3.68402 37.2483 3.92321ZM36.6829 4.03193C36.6829 3.7565 36.6394 3.48469 36.5525 3.2165C36.4727 2.94107 36.3531 2.69825 36.1937 2.48805C36.0342 2.27061 35.8385 2.09665 35.6066 1.96618C35.3746 1.83571 35.1064 1.77048 34.802 1.77048C34.5846 1.77048 34.3744 1.81034 34.1714 1.89007C33.9685 1.96255 33.7764 2.06041 33.5952 2.18363C33.414 2.2996 33.2436 2.43369 33.0842 2.58591C32.9247 2.73087 32.7797 2.87946 32.6493 3.03167C32.5913 3.10416 32.5152 3.18751 32.421 3.28174C32.334 3.37597 32.2687 3.46294 32.2253 3.54268C32.2108 3.57892 32.1926 3.62966 32.1709 3.69489C32.1491 3.75288 32.1274 3.81811 32.1057 3.89059C32.0839 3.95583 32.0622 4.02106 32.0404 4.0863C32.0187 4.15153 32.0006 4.20589 31.9861 4.24938C31.8991 4.51032 31.8085 4.77126 31.7142 5.03219C31.6273 5.29313 31.5367 5.55407 31.4424 5.81501C31.2612 6.29339 31.0619 6.75366 30.8445 7.1958C30.6343 7.63794 30.3733 8.05834 30.0616 8.457C30.3371 8.69619 30.6451 8.89552 30.9858 9.05498C31.3265 9.20719 31.6816 9.2833 32.0513 9.2833C32.4355 9.2833 32.8051 9.21807 33.1603 9.0876C33.5154 8.94988 33.8525 8.76505 34.1714 8.53311C34.4903 8.30116 34.7839 8.03298 35.0521 7.72855C35.3203 7.41687 35.5595 7.08708 35.7697 6.73916C35.9799 6.39124 36.1574 6.03608 36.3024 5.67367C36.4474 5.31125 36.5561 4.95609 36.6286 4.60817C36.6431 4.50669 36.6539 4.41247 36.6612 4.32549C36.6757 4.23126 36.6829 4.13341 36.6829 4.03193ZM41.6951 5.56494C41.6951 5.84038 41.6625 6.14118 41.5973 6.46735C41.5393 6.79352 41.4487 7.11969 41.3254 7.44587C41.2022 7.77204 41.05 8.09096 40.8688 8.40264C40.6948 8.70706 40.4919 8.97887 40.26 9.21807C40.0353 9.45726 39.7816 9.64571 39.4989 9.78343C39.2234 9.9284 38.9263 10.0009 38.6073 10.0009C38.3682 10.0009 38.1616 9.93564 37.9876 9.80518C37.8137 9.68196 37.6651 9.52249 37.5419 9.32679C37.4259 9.13109 37.3389 8.92089 37.2809 8.69619C37.2229 8.46425 37.1939 8.2468 37.1939 8.04385C37.1939 7.80465 37.2266 7.56909 37.2918 7.33714C37.4947 6.6703 37.8209 6.07594 38.2703 5.55407C38.7197 5.03219 39.2669 4.64079 39.912 4.37985C39.9265 4.3726 39.9447 4.36898 39.9664 4.36898C40.0171 4.36898 40.0534 4.3871 40.0751 4.42334C40.1041 4.45958 40.1186 4.49945 40.1186 4.54294C40.1186 4.59367 40.0896 4.63716 40.0316 4.67341C39.9302 4.73139 39.8287 4.78938 39.7272 4.84736C39.6257 4.8981 39.5243 4.96334 39.4228 5.04307C39.0241 5.333 38.6835 5.69179 38.4008 6.11943C38.1181 6.54708 37.9043 6.99647 37.7593 7.46761C37.7086 7.61982 37.6832 7.79016 37.6832 7.97861C37.6832 8.13083 37.7049 8.29391 37.7484 8.46787C37.7919 8.64183 37.8572 8.80492 37.9441 8.95713C38.0311 9.10209 38.1398 9.22531 38.2703 9.32679C38.408 9.42102 38.5675 9.46813 38.7487 9.46813C38.8647 9.46813 38.9734 9.44639 39.0749 9.4029C39.1836 9.35941 39.2851 9.30505 39.3793 9.23981C39.6547 9.04411 39.9012 8.79042 40.1186 8.47874C40.3361 8.16707 40.5209 7.83365 40.6731 7.47848C40.8253 7.11607 40.9413 6.75003 41.021 6.38037C41.1008 6.00346 41.1406 5.6483 41.1406 5.31488V5.18441C41.1261 4.99595 41.0609 4.83649 40.9449 4.70602C40.8362 4.57555 40.6985 4.47045 40.5318 4.39072C40.481 4.36898 40.4303 4.35086 40.3795 4.33636C40.3361 4.32186 40.2926 4.30374 40.2491 4.282C40.1766 4.25301 40.1404 4.20227 40.1404 4.12979C40.1404 4.07905 40.1549 4.03556 40.1838 3.99932C40.2128 3.96308 40.2527 3.94858 40.3034 3.95583H40.3143C40.4738 3.97032 40.6296 4.00656 40.7818 4.06455C40.9413 4.12254 41.0826 4.20227 41.2058 4.30374C41.3291 4.40522 41.4305 4.52482 41.5103 4.66253C41.5973 4.80025 41.6516 4.95609 41.6734 5.13005C41.6879 5.20253 41.6951 5.27501 41.6951 5.34749C41.6951 5.41273 41.6951 5.48521 41.6951 5.56494ZM45.9897 4.94521C45.9897 5.12642 45.9462 5.30763 45.8592 5.48883C45.7723 5.66279 45.6599 5.8295 45.5222 5.98896C45.3917 6.14843 45.2468 6.29339 45.0873 6.42386C44.9278 6.55433 44.7792 6.66668 44.6415 6.7609C44.4313 6.90587 44.2103 7.03996 43.9783 7.16318C43.7536 7.2864 43.5072 7.34801 43.239 7.34801C43.181 7.34801 43.1158 7.34077 43.0433 7.32627C42.9781 7.31177 42.9454 7.26466 42.9454 7.18493C42.9454 7.08345 42.9925 7.02184 43.0868 7.0001C43.1085 6.99285 43.1339 6.98923 43.1629 6.98923C43.1919 6.98923 43.2209 6.9856 43.2499 6.97835C43.3296 6.96386 43.4057 6.93849 43.4782 6.90225C43.5579 6.866 43.6376 6.82614 43.7174 6.78265C43.8406 6.70292 43.9964 6.59057 44.1849 6.44561C44.3733 6.30064 44.5582 6.14118 44.7394 5.96722C44.9206 5.79326 45.0728 5.61568 45.196 5.43447C45.3265 5.25327 45.3917 5.08293 45.3917 4.92347C45.3917 4.82199 45.3374 4.77126 45.2286 4.77126C45.1851 4.77126 45.1417 4.7785 45.0982 4.793C45.0547 4.8075 45.0112 4.82199 44.9677 4.83649C44.6198 4.95246 44.3009 5.13005 44.0109 5.36924C43.721 5.60118 43.4709 5.87299 43.2607 6.18467C43.0505 6.49634 42.8838 6.82976 42.7606 7.18493C42.6446 7.54009 42.5866 7.89526 42.5866 8.25042C42.5866 8.3664 42.5939 8.50049 42.6084 8.6527C42.6301 8.79767 42.6664 8.93538 42.7171 9.06585C42.7751 9.19632 42.8512 9.30867 42.9454 9.4029C43.0397 9.48988 43.1629 9.53337 43.3151 9.53337C43.3731 9.53337 43.4274 9.52249 43.4782 9.50075C43.5289 9.48625 43.5797 9.46451 43.6304 9.43551C43.8261 9.32679 44.0073 9.18183 44.174 9.00062C44.3407 8.81216 44.4893 8.62371 44.6198 8.43525C44.656 8.39176 44.6886 8.34465 44.7176 8.29391C44.7539 8.24317 44.7901 8.19244 44.8264 8.1417C44.8481 8.10546 44.8843 8.08734 44.9351 8.08734C44.9786 8.08734 45.0184 8.10183 45.0547 8.13083C45.0982 8.15982 45.1199 8.19969 45.1199 8.25042C45.1199 8.26492 45.1127 8.28666 45.0982 8.31566C45.0112 8.47512 44.9025 8.6527 44.772 8.8484C44.6415 9.03686 44.4966 9.21444 44.3371 9.38115C44.1776 9.54786 44.0037 9.68558 43.8152 9.7943C43.634 9.91028 43.4419 9.96826 43.239 9.96826C43.0143 9.96826 42.8258 9.90303 42.6736 9.77256C42.5287 9.64934 42.4127 9.49712 42.3257 9.31592C42.2387 9.12746 42.1771 8.92814 42.1409 8.71794C42.1046 8.50049 42.0865 8.30479 42.0865 8.13083C42.0865 7.57996 42.2025 7.05446 42.4344 6.55433C42.6664 6.04695 42.9781 5.60118 43.3695 5.21702C43.4854 5.10105 43.6195 4.98508 43.7717 4.86911C43.924 4.74589 44.0834 4.63716 44.2501 4.54294C44.4241 4.44146 44.598 4.36173 44.772 4.30374C44.9532 4.23851 45.1272 4.20589 45.2939 4.20589C45.5041 4.20589 45.6708 4.27837 45.794 4.42334C45.9245 4.56106 45.9897 4.73502 45.9897 4.94521Z" fill="#303030"/>
<path d="M7.51795 21.5277C7.06798 21.5277 6.65744 21.4233 6.28633 21.2146C5.91521 21.0012 5.62064 20.7066 5.40262 20.3309C5.18923 19.9505 5.08253 19.5237 5.08253 19.0505C5.08253 18.5774 5.18923 18.1529 5.40262 17.7772C5.62064 17.3968 5.91521 17.1022 6.28633 16.8935C6.65744 16.6801 7.06798 16.5734 7.51795 16.5734C7.97256 16.5734 8.38542 16.6801 8.75653 16.8935C9.12764 17.1022 9.41989 17.3945 9.63328 17.7702C9.84667 18.146 9.95337 18.5727 9.95337 19.0505C9.95337 19.5284 9.84667 19.9551 9.63328 20.3309C9.41989 20.7066 9.12764 21.0012 8.75653 21.2146C8.38542 21.4233 7.97256 21.5277 7.51795 21.5277ZM7.51795 20.978C7.85659 20.978 8.16044 20.8991 8.42949 20.7414C8.70319 20.5837 8.91658 20.3587 9.06966 20.0665C9.22738 19.7742 9.30624 19.4356 9.30624 19.0505C9.30624 18.6609 9.22738 18.3222 9.06966 18.0346C8.91658 17.7424 8.70551 17.5174 8.43645 17.3597C8.16739 17.2019 7.86123 17.1231 7.51795 17.1231C7.17467 17.1231 6.86851 17.2019 6.59945 17.3597C6.33039 17.5174 6.11701 17.7424 5.95928 18.0346C5.8062 18.3222 5.72966 18.6609 5.72966 19.0505C5.72966 19.4356 5.8062 19.7742 5.95928 20.0665C6.11701 20.3587 6.33039 20.5837 6.59945 20.7414C6.87314 20.8991 7.17931 20.978 7.51795 20.978ZM15.8689 17.6658L14.679 21.479H14.0249L13.1064 18.4521L12.1879 21.479H11.5338L10.337 17.6658H10.9841L11.8609 20.8667L12.8072 17.6658H13.4543L14.3798 20.8736L15.2426 17.6658H15.8689ZM18.3552 17.5963C18.8191 17.5963 19.1948 17.7377 19.4824 18.0207C19.77 18.299 19.9138 18.7026 19.9138 19.2315V21.479H19.2876V19.3219C19.2876 18.9415 19.1925 18.6516 19.0023 18.4521C18.8121 18.248 18.5523 18.146 18.223 18.146C17.889 18.146 17.6222 18.2503 17.4228 18.4591C17.2279 18.6678 17.1305 18.9717 17.1305 19.3706V21.479H16.4973V17.6658H17.1305V18.2086C17.2558 18.0138 17.4251 17.863 17.6385 17.7563C17.8565 17.6496 18.0954 17.5963 18.3552 17.5963ZM24.4274 19.4263C24.4274 19.5469 24.4204 19.6745 24.4065 19.809H21.3587C21.3819 20.1848 21.5095 20.4793 21.7414 20.6927C21.978 20.9015 22.2633 21.0058 22.5973 21.0058C22.871 21.0058 23.0983 20.9432 23.2792 20.818C23.4648 20.6881 23.5947 20.5164 23.6689 20.303H24.3508C24.2488 20.6695 24.0446 20.9687 23.7385 21.2007C23.4323 21.428 23.0519 21.5416 22.5973 21.5416C22.2355 21.5416 21.9108 21.4604 21.6231 21.2981C21.3402 21.1357 21.1175 20.9061 20.9551 20.6092C20.7928 20.3077 20.7116 19.9598 20.7116 19.5655C20.7116 19.1712 20.7905 18.8256 20.9482 18.5287C21.1059 18.2318 21.3263 18.0045 21.6092 17.8468C21.8968 17.6844 22.2262 17.6032 22.5973 17.6032C22.9591 17.6032 23.2792 17.6821 23.5576 17.8398C23.8359 17.9975 24.0493 18.2155 24.1977 18.4939C24.3508 18.7676 24.4274 19.0784 24.4274 19.4263ZM23.7733 19.2941C23.7733 19.0529 23.7199 18.8464 23.6132 18.6748C23.5065 18.4985 23.3604 18.3663 23.1749 18.2782C22.9939 18.1854 22.7921 18.139 22.5695 18.139C22.2494 18.139 21.9757 18.2411 21.7484 18.4452C21.5257 18.6493 21.3982 18.9323 21.3657 19.2941H23.7733ZM25.8964 18.2851C26.0077 18.0671 26.1654 17.8978 26.3695 17.7772C26.5783 17.6566 26.8311 17.5963 27.128 17.5963V18.2503H26.961C26.2513 18.2503 25.8964 18.6354 25.8964 19.4054V21.479H25.2632V17.6658H25.8964V18.2851Z" fill="#303030" fill-opacity="0.5"/>
</svg>
